<?xml version="1.0" encoding="UTF-8" standalone="no"?><!DOCTYPE svg PUBLIC "-//W3C//DTD SVG 1.1//EN" "http://www.w3.org/Graphics/SVG/1.1/DTD/svg11.dtd"><!-- Generated by graphviz version 2.40.1 (20161225.0304)
 --><!-- Title: NationalParkMeetupSystem Pages: 1 --><svg xmlns="http://www.w3.org/2000/svg" xmlns:xlink="http://www.w3.org/1999/xlink" width="424pt" height="344pt" viewBox="0.00 0.00 424.07 344.00">
<g id="graph0" class="graph" transform="scale(1 1) rotate(0) translate(4 340)">
<title>NationalParkMeetupSystem</title>
<polygon fill="#ffffff" stroke="transparent" points="-4,4 -4,-340 420.0652,-340 420.0652,4 -4,4"/>
<!-- Frontend -->
<g id="node1" class="node">
<title>Frontend</title>
<polygon fill="#add8e6" stroke="#000000" points="347.6576,-336 206.8304,-336 206.8304,-332 202.8304,-332 202.8304,-328 206.8304,-328 206.8304,-308 202.8304,-308 202.8304,-304 206.8304,-304 206.8304,-300 347.6576,-300 347.6576,-336"/>
<polyline fill="none" stroke="#000000" points="206.8304,-332 210.8304,-332 210.8304,-328 206.8304,-328 "/>
<polyline fill="none" stroke="#000000" points="206.8304,-308 210.8304,-308 210.8304,-304 206.8304,-304 "/>
<text text-anchor="middle" x="277.244" y="-315" font-family="Times,serif" font-size="10.00" fill="#000000">Frontend (React / Mobile App)</text>
</g>
<!-- API Gateway -->
<g id="node2" class="node">
<title>API Gateway</title>
<polygon fill="#add8e6" stroke="#000000" points="213.3851,-263 143.1029,-263 143.1029,-259 139.1029,-259 139.1029,-255 143.1029,-255 143.1029,-235 139.1029,-235 139.1029,-231 143.1029,-231 143.1029,-227 213.3851,-227 213.3851,-263"/>
<polyline fill="none" stroke="#000000" points="143.1029,-259 147.1029,-259 147.1029,-255 143.1029,-255 "/>
<polyline fill="none" stroke="#000000" points="143.1029,-235 147.1029,-235 147.1029,-231 143.1029,-231 "/>
<text text-anchor="middle" x="178.244" y="-242" font-family="Times,serif" font-size="10.00" fill="#000000">API Gateway</text>
</g>
<!-- Frontend&#45;&gt;API Gateway -->
<g id="edge1" class="edge">
<title>Frontend-&gt;API Gateway</title>
<path fill="none" stroke="#000000" d="M252.7721,-299.9551C240.1589,-290.6545 224.6037,-279.1844 210.9726,-269.1332"/>
<polygon fill="#000000" stroke="#000000" points="212.9032,-266.2082 202.7775,-263.0904 208.7489,-271.8421 212.9032,-266.2082"/>
</g>
<!-- UserService -->
<g id="node3" class="node">
<title>UserService</title>
<polygon fill="#add8e6" stroke="#000000" points="276.105,-190 208.383,-190 208.383,-186 204.383,-186 204.383,-182 208.383,-182 208.383,-162 204.383,-162 204.383,-158 208.383,-158 208.383,-154 276.105,-154 276.105,-190"/>
<polyline fill="none" stroke="#000000" points="208.383,-186 212.383,-186 212.383,-182 208.383,-182 "/>
<polyline fill="none" stroke="#000000" points="208.383,-162 212.383,-162 212.383,-158 208.383,-158 "/>
<text text-anchor="middle" x="242.244" y="-169" font-family="Times,serif" font-size="10.00" fill="#000000">User Service</text>
</g>
<!-- API Gateway&#45;&gt;UserService -->
<g id="edge2" class="edge">
<title>API Gateway-&gt;UserService</title>
<path fill="none" stroke="#000000" d="M194.0642,-226.9551C201.7566,-218.1809 211.1418,-207.4759 219.5784,-197.853"/>
<polygon fill="#000000" stroke="#000000" points="222.4234,-199.9171 226.384,-190.0904 217.1598,-195.3024 222.4234,-199.9171"/>
</g>
<!-- LocationService -->
<g id="node4" class="node">
<title>LocationService</title>
<polygon fill="#add8e6" stroke="#000000" points="190.273,-190 106.215,-190 106.215,-186 102.215,-186 102.215,-182 106.215,-182 106.215,-162 102.215,-162 102.215,-158 106.215,-158 106.215,-154 190.273,-154 190.273,-190"/>
<polyline fill="none" stroke="#000000" points="106.215,-186 110.215,-186 110.215,-182 106.215,-182 "/>
<polyline fill="none" stroke="#000000" points="106.215,-162 110.215,-162 110.215,-158 106.215,-158 "/>
<text text-anchor="middle" x="148.244" y="-169" font-family="Times,serif" font-size="10.00" fill="#000000">Location Service</text>
</g>
<!-- API Gateway&#45;&gt;LocationService -->
<g id="edge3" class="edge">
<title>API Gateway-&gt;LocationService</title>
<path fill="none" stroke="#000000" d="M170.8283,-226.9551C167.4388,-218.7074 163.3482,-208.7536 159.5849,-199.5962"/>
<polygon fill="#000000" stroke="#000000" points="162.7169,-198.0094 155.6784,-190.0904 156.2423,-200.6702 162.7169,-198.0094"/>
</g>
<!-- ProximityService -->
<g id="node5" class="node">
<title>ProximityService</title>
<polygon fill="#add8e6" stroke="#000000" points="88.7334,-190 -.2454,-190 -.2454,-186 -4.2454,-186 -4.2454,-182 -.2454,-182 -.2454,-162 -4.2454,-162 -4.2454,-158 -.2454,-158 -.2454,-154 88.7334,-154 88.7334,-190"/>
<polyline fill="none" stroke="#000000" points="-.2454,-186 3.7546,-186 3.7546,-182 -.2454,-182 "/>
<polyline fill="none" stroke="#000000" points="-.2454,-162 3.7546,-162 3.7546,-158 -.2454,-158 "/>
<text text-anchor="middle" x="44.244" y="-169" font-family="Times,serif" font-size="10.00" fill="#000000">Proximity Service</text>
</g>
<!-- API Gateway&#45;&gt;ProximityService -->
<g id="edge4" class="edge">
<title>API Gateway-&gt;ProximityService</title>
<path fill="none" stroke="#000000" d="M145.1204,-226.9551C127.4038,-217.3035 105.3987,-205.3156 86.4661,-195.0016"/>
<polygon fill="#000000" stroke="#000000" points="87.9068,-191.8008 77.451,-190.0904 84.558,-197.9479 87.9068,-191.8008"/>
</g>
<!-- PostgreSQL -->
<g id="node7" class="node">
<title>PostgreSQL</title>
<path fill="#ffffe0" stroke="#000000" d="M180.6261,-113C180.6261,-115.2071 166.1119,-117 148.244,-117 130.3761,-117 115.8619,-115.2071 115.8619,-113 115.8619,-113 115.8619,-77 115.8619,-77 115.8619,-74.7929 130.3761,-73 148.244,-73 166.1119,-73 180.6261,-74.7929 180.6261,-77 180.6261,-77 180.6261,-113 180.6261,-113"/>
<path fill="none" stroke="#000000" d="M180.6261,-113C180.6261,-110.7929 166.1119,-109 148.244,-109 130.3761,-109 115.8619,-110.7929 115.8619,-113"/>
<text text-anchor="middle" x="148.244" y="-98" font-family="Times,serif" font-size="10.00" fill="#000000">PostgreSQL</text>
<text text-anchor="middle" x="148.244" y="-86" font-family="Times,serif" font-size="10.00" fill="#000000">(PostGIS)</text>
</g>
<!-- UserService&#45;&gt;PostgreSQL -->
<g id="edge5" class="edge">
<title>UserService-&gt;PostgreSQL</title>
<path fill="none" stroke="#000000" d="M219.9673,-153.7521C208.6552,-144.4858 194.672,-133.0315 182.0651,-122.7045"/>
<polygon fill="#000000" stroke="#000000" points="183.975,-119.7447 174.0212,-116.1154 179.5392,-125.1598 183.975,-119.7447"/>
</g>
<!-- Kafka -->
<g id="node9" class="node">
<title>Kafka</title>
<path fill="#ffb6c1" stroke="#000000" d="M279.2075,-109.7273C279.2075,-111.5331 262.6398,-113 242.244,-113 221.8482,-113 205.2805,-111.5331 205.2805,-109.7273 205.2805,-109.7273 205.2805,-80.2727 205.2805,-80.2727 205.2805,-78.4669 221.8482,-77 242.244,-77 262.6398,-77 279.2075,-78.4669 279.2075,-80.2727 279.2075,-80.2727 279.2075,-109.7273 279.2075,-109.7273"/>
<path fill="none" stroke="#000000" d="M279.2075,-109.7273C279.2075,-107.9214 262.6398,-106.4545 242.244,-106.4545 221.8482,-106.4545 205.2805,-107.9214 205.2805,-109.7273"/>
<text text-anchor="middle" x="242.244" y="-92" font-family="Times,serif" font-size="10.00" fill="#000000">Apache Kafka</text>
</g>
<!-- UserService&#45;&gt;Kafka -->
<g id="edge10" class="edge">
<title>UserService-&gt;Kafka</title>
<path fill="none" stroke="#000000" d="M242.244,-153.7521C242.244,-144.6422 242.244,-133.4174 242.244,-123.2282"/>
<polygon fill="#000000" stroke="#000000" points="245.7441,-123.1169 242.244,-113.1169 238.7441,-123.117 245.7441,-123.1169"/>
</g>
<!-- LocationService&#45;&gt;PostgreSQL -->
<g id="edge6" class="edge">
<title>LocationService-&gt;PostgreSQL</title>
<path fill="none" stroke="#000000" d="M148.244,-153.7521C148.244,-145.8888 148.244,-136.4498 148.244,-127.4612"/>
<polygon fill="#000000" stroke="#000000" points="151.7441,-127.2376 148.244,-117.2377 144.7441,-127.2377 151.7441,-127.2376"/>
</g>
<!-- Redis -->
<g id="node8" class="node">
<title>Redis</title>
<path fill="#ffffe0" stroke="#000000" d="M95.0044,-109.7273C95.0044,-111.5331 76.7349,-113 54.244,-113 31.7531,-113 13.4836,-111.5331 13.4836,-109.7273 13.4836,-109.7273 13.4836,-80.2727 13.4836,-80.2727 13.4836,-78.4669 31.7531,-77 54.244,-77 76.7349,-77 95.0044,-78.4669 95.0044,-80.2727 95.0044,-80.2727 95.0044,-109.7273 95.0044,-109.7273"/>
<path fill="none" stroke="#000000" d="M95.0044,-109.7273C95.0044,-107.9214 76.7349,-106.4545 54.244,-106.4545 31.7531,-106.4545 13.4836,-107.9214 13.4836,-109.7273"/>
<text text-anchor="middle" x="54.244" y="-92" font-family="Times,serif" font-size="10.00" fill="#000000">Redis (Caching)</text>
</g>
<!-- LocationService&#45;&gt;Redis -->
<g id="edge7" class="edge">
<title>LocationService-&gt;Redis</title>
<path fill="none" stroke="#000000" d="M125.9673,-153.7521C113.5584,-143.5873 97.9352,-130.7896 84.4404,-119.7353"/>
<polygon fill="#000000" stroke="#000000" points="86.3146,-116.7463 76.3608,-113.1169 81.8788,-122.1614 86.3146,-116.7463"/>
</g>
<!-- LocationService&#45;&gt;Kafka -->
<g id="edge11" class="edge">
<title>LocationService-&gt;Kafka</title>
<path fill="none" stroke="#000000" d="M170.5207,-153.7521C182.9296,-143.5873 198.5528,-130.7896 212.0476,-119.7353"/>
<polygon fill="#000000" stroke="#000000" points="214.6092,-122.1614 220.1272,-113.1169 210.1734,-116.7463 214.6092,-122.1614"/>
</g>
<!-- ProximityService&#45;&gt;PostgreSQL -->
<g id="edge8" class="edge">
<title>ProximityService-&gt;PostgreSQL</title>
<path fill="none" stroke="#000000" d="M68.6274,-153.9469C81.4754,-144.4344 97.4922,-132.5759 111.7842,-121.9942"/>
<polygon fill="#000000" stroke="#000000" points="114.0086,-124.7023 119.9629,-115.9389 109.8433,-119.0764 114.0086,-124.7023"/>
</g>
<!-- ProximityService&#45;&gt;Redis -->
<g id="edge9" class="edge">
<title>ProximityService-&gt;Redis</title>
<path fill="none" stroke="#000000" d="M46.6139,-153.7521C47.797,-144.6422 49.2547,-133.4174 50.578,-123.2282"/>
<polygon fill="#000000" stroke="#000000" points="54.074,-123.4845 51.8912,-113.1169 47.1323,-122.5829 54.074,-123.4845"/>
</g>
<!-- NotificationService -->
<g id="node6" class="node">
<title>NotificationService</title>
<polygon fill="#add8e6" stroke="#000000" points="325.5492,-36 228.9388,-36 228.9388,-32 224.9388,-32 224.9388,-28 228.9388,-28 228.9388,-8 224.9388,-8 224.9388,-4 228.9388,-4 228.9388,0 325.5492,0 325.5492,-36"/>
<polyline fill="none" stroke="#000000" points="228.9388,-32 232.9388,-32 232.9388,-28 228.9388,-28 "/>
<polyline fill="none" stroke="#000000" points="228.9388,-8 232.9388,-8 232.9388,-4 228.9388,-4 "/>
<text text-anchor="middle" x="277.244" y="-15" font-family="Times,serif" font-size="10.00" fill="#000000">Notification Service</text>
</g>
<!-- NotificationService&#45;&gt;Frontend -->
<g id="edge13" class="edge">
<title>NotificationService-&gt;Frontend</title>
<path fill="none" stroke="#000000" stroke-dasharray="5,2" d="M290.8761,-36.2508C300.7035,-51.2293 312.244,-73.4141 312.244,-95 312.244,-245 312.244,-245 312.244,-245 312.244,-261.4443 304.9333,-278.1056 296.9943,-291.3506"/>
<polygon fill="#000000" stroke="#000000" points="293.9427,-289.6252 291.4798,-299.9298 299.8312,-293.4102 293.9427,-289.6252"/>
<text text-anchor="middle" x="364.1546" y="-176.2" font-family="Times,serif" font-size="14.00" fill="#000000">Push Notifications</text>
<text text-anchor="middle" x="364.1546" y="-159.4" font-family="Times,serif" font-size="14.00" fill="#000000">(WebSocket/SSE)</text>
</g>
<!-- Kafka&#45;&gt;NotificationService -->
<g id="edge12" class="edge">
<title>Kafka-&gt;NotificationService</title>
<path fill="none" stroke="#000000" d="M250.5385,-76.7521C254.8101,-67.3545 260.1048,-55.7063 264.8503,-45.2661"/>
<polygon fill="#000000" stroke="#000000" points="268.0572,-46.6689 269.009,-36.1169 261.6847,-43.7723 268.0572,-46.6689"/>
</g>
</g>
</svg>